<svg width="32" height="23" viewBox="0 0 32 23" fill="none" xmlns="http://www.w3.org/2000/svg">
<path d="M26.68 0.272535C29.925 2.90754 32 6.93754 32 11.4475C32 15.9575 29.925 19.9825 26.68 22.6225C26.165 23.0425 25.41 22.9625 24.99 22.4475C24.57 21.9325 24.65 21.1775 25.165 20.7575C27.875 18.5575 29.6 15.2075 29.6 11.4475C29.6 7.68754 27.875 4.33754 25.165 2.13254C24.65 1.71254 24.575 0.957535 24.99 0.442535C25.405 -0.0724647 26.165 -0.147465 26.68 0.267535V0.272535ZM23.655 3.99754C25.815 5.75754 27.2 8.44254 27.2 11.4475C27.2 14.4525 25.815 17.1375 23.655 18.8975C23.14 19.3175 22.385 19.2375 21.965 18.7225C21.545 18.2075 21.625 17.4525 22.14 17.0325C23.765 15.7125 24.8 13.7025 24.8 11.4475C24.8 9.19254 23.765 7.18254 22.14 5.85754C21.625 5.43754 21.55 4.68254 21.965 4.16754C22.38 3.65254 23.14 3.57754 23.655 3.99254V3.99754ZM20.63 7.72254C21.705 8.60254 22.4 9.94254 22.4 11.4475C22.4 12.9525 21.705 14.2925 20.63 15.1725C20.115 15.5925 19.36 15.5125 18.94 14.9975C18.52 14.4825 18.6 13.7275 19.115 13.3075C19.655 12.8675 20 12.1975 20 11.4475C20 10.6975 19.655 10.0275 19.115 9.58253C18.6 9.16253 18.525 8.40753 18.94 7.89253C19.355 7.37753 20.115 7.30253 20.63 7.71753V7.72254ZM15.055 0.387535C15.63 0.647535 16 1.21754 16 1.84754V21.0475C16 21.6775 15.63 22.2475 15.055 22.5075C14.48 22.7675 13.805 22.6625 13.335 22.2425L6.59 16.2475H3.2C1.435 16.2475 0 14.8125 0 13.0475V9.84754C0 8.08253 1.435 6.64753 3.2 6.64753H6.59L13.335 0.652535C13.805 0.232535 14.48 0.132535 15.055 0.387535Z" fill="white"/>
</svg>
