<svg width="43" height="52" viewBox="0 0 43 52" fill="none" xmlns="http://www.w3.org/2000/svg">
<path d="M7.15 1C3.75469 1 1 3.79948 1 7.25V44.75C1 48.2005 3.75469 51 7.15 51H11.25C14.6453 51 17.4 48.2005 17.4 44.75V7.25C17.4 3.79948 14.6453 1 11.25 1H7.15ZM31.75 1C28.3547 1 25.6 3.79948 25.6 7.25V44.75C25.6 48.2005 28.3547 51 31.75 51H35.85C39.2453 51 42 48.2005 42 44.75V7.25C42 3.79948 39.2453 1 35.85 1H31.75Z" fill="white"/>
<path d="M7.15 0.5C3.47097 0.5 0.5 3.53097 0.5 7.25V44.75C0.5 48.469 3.47097 51.5 7.15 51.5H11.25C14.929 51.5 17.9 48.469 17.9 44.75V7.25C17.9 3.53097 14.929 0.5 11.25 0.5H7.15ZM31.75 0.5C28.071 0.5 25.1 3.53097 25.1 7.25V44.75C25.1 48.469 28.071 51.5 31.75 51.5H35.85C39.529 51.5 42.5 48.469 42.5 44.75V7.25C42.5 3.53097 39.529 0.5 35.85 0.5H31.75Z" stroke="black" stroke-opacity="0.08"/>
</svg>
