<svg width="53" height="50" viewBox="0 0 53 50" fill="none" xmlns="http://www.w3.org/2000/svg">
<path d="M9.84017 19.044C10.6906 16.6109 12.0711 14.3228 14.0148 12.3696C20.9173 5.39372 32.1048 5.39372 39.0073 12.3696L40.8958 14.2893H37.1077C35.1529 14.2893 33.5737 15.8854 33.5737 17.8609C33.5737 19.8365 35.1529 21.4326 37.1077 21.4326H49.4218H49.4659C51.4207 21.4326 53 19.8365 53 17.8609V5.36023C53 3.38468 51.4207 1.7886 49.4659 1.7886C47.5111 1.7886 45.9319 3.38468 45.9319 5.36023V9.28902L43.9992 7.32463C34.3357 -2.44154 18.6753 -2.44154 9.01188 7.32463C6.31715 10.048 4.37341 13.2513 3.18066 16.6778C2.52907 18.5418 3.50094 20.5731 5.33424 21.2317C7.16754 21.8902 9.18858 20.908 9.84017 19.0552V19.044ZM2.54011 28.7209C1.98791 28.8883 1.4578 29.1897 1.02709 29.6361C0.58533 30.0826 0.287143 30.6183 0.132528 31.1987C0.0993958 31.3327 0.0662638 31.4778 0.0441758 31.6229C0.0110439 31.8126 0 32.0023 0 32.1921V44.6481C0 46.6237 1.57929 48.2198 3.53407 48.2198C5.48885 48.2198 7.06814 46.6237 7.06814 44.6481V40.7305L9.01188 42.6837C18.6753 52.4388 34.3357 52.4388 43.9881 42.6837C46.6828 39.9604 48.6376 36.7571 49.8304 33.3417C50.482 31.4778 49.5101 29.4464 47.6768 28.7879C45.8435 28.1294 43.8225 29.1116 43.1709 30.9643C42.3205 33.3975 40.94 35.6856 38.9963 37.6388C32.0938 44.6147 20.9062 44.6147 14.0038 37.6388L13.9927 37.6277L12.1042 35.7191H15.9033C17.8581 35.7191 19.4374 34.123 19.4374 32.1474C19.4374 30.1719 17.8581 28.5758 15.9033 28.5758H3.57825C3.40154 28.5758 3.22484 28.587 3.04813 28.6093C2.87143 28.6316 2.70577 28.6651 2.54011 28.7209Z" fill="white"/>
</svg>
