<svg width="256" height="34" viewBox="0 0 256 34" fill="none" xmlns="http://www.w3.org/2000/svg">
<path fill-rule="evenodd" clip-rule="evenodd" d="M191.176 17C191.176 23.146 186.231 28.1284 180.133 28.1284C174.034 28.1284 169.09 23.146 169.09 17C169.09 10.854 174.034 5.87168 180.133 5.87168C186.231 5.87168 191.176 10.854 191.176 17ZM196.724 20.0909C195.282 28.004 188.402 34 180.133 34C171.863 34 164.983 28.004 163.541 20.0909H3.06667C1.373 20.0909 0 18.7073 0 17.0006C0 15.2938 1.373 13.9102 3.06667 13.9102H163.541C164.983 5.99653 171.863 0 180.133 0C188.402 0 195.282 5.99653 196.725 13.9102H252.933C254.627 13.9102 256 15.2938 256 17.0006C256 18.7073 254.627 20.0909 252.933 20.0909H196.724Z" fill="white"/>
</svg>
